{
  "accessors": [
    {
      "bufferView": 2,
      "componentType": 5126,
      "count": 65532,
      "max": [
        0.43695101141929626,
        4.323767185211182,
        3.067847967147827
      ],
      "min": [
        -5.772363185882568,
        -2.0256800651550293,
        0.11751700192689896
      ],
      "type": "VEC3"
    },
    {
      "bufferView": 2,
      "byteOffset": 786384,
      "componentType": 5126,
      "count": 65532,
      "max": [
        0.9998735189437866,
        0.9993473887443542,
        0.9999998807907104
      ],
      "min": [
        -0.9999788999557495,
        -0.9998185038566589,
        -0.9998944997787476
      ],
      "type": "VEC3"
    },
    {
      "bufferView": 1,
      "componentType": 5126,
      "count": 65532,
      "max": [
        0.9999499917030334,
        0.9997680187225342
      ],
      "min": [
        0.00108299998100847,
        9.000000318337698e-06
      ],
      "type": "VEC2"
    },
    {
      "bufferView": 0,
      "componentType": 5125,
      "count": 346236,
      "type": "SCALAR"
    },
    {
      "bufferView": 2,
      "byteOffset": 1572768,
      "componentType": 5126,
      "count": 65532,
      "max": [
        10.206332206726074,
        9.011451721191406,
        1.2473909854888916
      ],
      "min": [
        -5.191634178161621,
        -7.5563178062438965,
        -0.11570899933576584
      ],
      "type": "VEC3"
    },
    {
      "bufferView": 2,
      "byteOffset": 2359152,
      "componentType": 5126,
      "count": 65532,
      "max": [
        0.9941642880439758,
        0.9994456768035889,
        0.9999992847442627
      ],
      "min": [
        -0.9915853142738342,
        -0.9919352531433105,
        -0.9035320281982422
      ],
      "type": "VEC3"
    },
    {
      "bufferView": 1,
      "byteOffset": 524256,
      "componentType": 5126,
      "count": 65532,
      "max": [
        0.9912369847297668,
        0.9960169792175293
      ],
      "min": [
        0.002125999890267849,
        0.01321099977940321
      ],
      "type": "VEC2"
    },
    {
      "bufferView": 0,
      "byteOffset": 1384944,
      "componentType": 5125,
      "count": 342561,
      "type": "SCALAR"
    },
    {
      "bufferView": 2,
      "byteOffset": 3145536,
      "componentType": 5126,
      "count": 65532,
      "max": [
        9.755072593688965,
        8.845229148864746,
        3.598587989807129
      ],
      "min": [
        -3.9667649269104004,
        -4.742908954620361,
        -0.08165500313043594
      ],
      "type": "VEC3"
    },
    {
      "bufferView": 2,
      "byteOffset": 3931920,
      "componentType": 5126,
      "count": 65532,
      "max": [
        0.9999006986618042,
        0.9997344613075256,
        1.0
      ],
      "min": [
        -0.9997372031211853,
        -0.9999682903289795,
        -0.9999217987060547
      ],
      "type": "VEC3"
    },
    {
      "bufferView": 1,
      "byteOffset": 1048512,
      "componentType": 5126,
      "count": 65532,
      "max": [
        0.9967560172080994,
        0.9917089939117432
      ],
      "min": [
        0.0024210000410676003,
        0.026928000152111053
      ],
      "type": "VEC2"
    },
    {
      "bufferView": 0,
      "byteOffset": 2755188,
      "componentType": 5125,
      "count": 343179,
      "type": "SCALAR"
    },
    {
      "bufferView": 2,
      "byteOffset": 4718304,
      "componentType": 5126,
      "count": 65532,
      "max": [
        7.178943157196045,
        9.026670455932617,
        3.6096949577331543
      ],
      "min": [
        -4.806656837463379,
        -3.971534013748169,
        -0.05584700033068657
      ],
      "type": "VEC3"
    },
    {
      "bufferView": 2,
      "byteOffset": 5504688,
      "componentType": 5126,
      "count": 65532,
      "max": [
        0.9998782873153687,
        0.9998230338096619,
        1.0
      ],
      "min": [
        -0.9979002475738525,
        -0.9992712736129761,
        -0.9999853372573853
      ],
      "type": "VEC3"
    },
    {
      "bufferView": 1,
      "byteOffset": 1572768,
      "componentType": 5126,
      "count": 65532,
      "max": [
        0.996737003326416,
        0.9905229806900024
      ],
      "min": [
        0.004313999786973,
        0.0040790000930428505
      ],
      "type": "VEC2"
    },
    {
      "bufferView": 0,
      "byteOffset": 4127904,
      "componentType": 5125,
      "count": 335412,
      "type": "SCALAR"
    },
    {
      "bufferView": 2,
      "byteOffset": 6291072,
      "componentType": 5126,
      "count": 65532,
      "max": [
        6.273852825164795,
        8.834809303283691,
        4.264227867126465
      ],
      "min": [
        -6.601847171783447,
        -3.110966920852661,
        0.01484300009906292
      ],
      "type": "VEC3"
    },
    {
      "bufferView": 2,
      "byteOffset": 7077456,
      "componentType": 5126,
      "count": 65532,
      "max": [
        0.999785840511322,
        0.9999678134918213,
        0.9999980926513672
      ],
      "min": [
        -0.999996542930603,
        -0.9997178912162781,
        -0.9999960660934448
      ],
      "type": "VEC3"
    },
    {
      "bufferView": 1,
      "byteOffset": 2097024,
      "componentType": 5126,
      "count": 65532,
      "max": [
        0.9997990131378174,
        0.9840289950370789
      ],
      "min": [
        0.0013490000274032354,
        0.002010999945923686
      ],
      "type": "VEC2"
    },
    {
      "bufferView": 0,
      "byteOffset": 5469552,
      "componentType": 5125,
      "count": 327525,
      "type": "SCALAR"
    },
    {
      "bufferView": 2,
      "byteOffset": 7863840,
      "componentType": 5126,
      "count": 65532,
      "max": [
        4.851879119873047,
        8.246086120605469,
        3.4524118900299072
      ],
      "min": [
        -6.113064765930176,
        -1.9185600280761719,
        0.21552200615406036
      ],
      "type": "VEC3"
    },
    {
      "bufferView": 2,
      "byteOffset": 8650224,
      "componentType": 5126,
      "count": 65532,
      "max": [
        0.9999918937683105,
        0.9999843835830688,
        0.9999995231628418
      ],
      "min": [
        -0.9999839067459106,
        -0.9999405145645142,
        -0.9999923706054688
      ],
      "type": "VEC3"
    },
    {
      "bufferView": 1,
      "byteOffset": 2621280,
      "componentType": 5126,
      "count": 65532,
      "max": [
        0.99925297498703,
        0.9820939898490906
      ],
      "min": [
        0.004207000136375427,
        0.007203000131994486
      ],
      "type": "VEC2"
    },
    {
      "bufferView": 0,
      "byteOffset": 6779652,
      "componentType": 5125,
      "count": 352206,
      "type": "SCALAR"
    },
    {
      "bufferView": 2,
      "byteOffset": 9436608,
      "componentType": 5126,
      "count": 65532,
      "max": [
        8.919161796569824,
        8.829035758972168,
        3.523240089416504
      ],
      "min": [
        -5.97599983215332,
        -7.761717796325684,
        -0.11938200145959854
      ],
      "type": "VEC3"
    },
    {
      "bufferView": 2,
      "byteOffset": 10222992,
      "componentType": 5126,
      "count": 65532,
      "max": [
        0.9999537467956543,
        0.9999802112579346,
        1.0
      ],
      "min": [
        -0.9999839067459106,
        -0.9999525547027588,
        -0.9999874830245972
      ],
      "type": "VEC3"
    },
    {
      "bufferView": 1,
      "byteOffset": 3145536,
      "componentType": 5126,
      "count": 65532,
      "max": [
        0.9995399713516235,
        0.9989650249481201
      ],
      "min": [
        0.0012799999676644802,
        7.400000322377309e-05
      ],
      "type": "VEC2"
    },
    {
      "bufferView": 0,
      "byteOffset": 8188476,
      "componentType": 5125,
      "count": 283713,
      "type": "SCALAR"
    },
    {
      "bufferView": 2,
      "byteOffset": 11009376,
      "componentType": 5126,
      "count": 65532,
      "max": [
        10.126279830932617,
        4.728063106536865,
        4.580933094024658
      ],
      "min": [
        -4.088345050811768,
        -9.438129425048828,
        -0.2561269998550415
      ],
      "type": "VEC3"
    },
    {
      "bufferView": 2,
      "byteOffset": 11795760,
      "componentType": 5126,
      "count": 65532,
      "max": [
        0.9999475479125977,
        0.9999523162841797,
        0.9999994039535522
      ],
      "min": [
        -0.9999933242797852,
        -0.9995958209037781,
        -0.9999874830245972
      ],
      "type": "VEC3"
    },
    {
      "bufferView": 1,
      "byteOffset": 3669792,
      "componentType": 5126,
      "count": 65532,
      "max": [
        0.9998340010643005,
        0.9989020228385925
      ],
      "min": [
        0.001108999946154654,
        0.00032900000223889947
      ],
      "type": "VEC2"
    },
    {
      "bufferView": 0,
      "byteOffset": 9323328,
      "componentType": 5125,
      "count": 329562,
      "type": "SCALAR"
    },
    {
      "bufferView": 2,
      "byteOffset": 12582144,
      "componentType": 5126,
      "count": 65532,
      "max": [
        -1.4931360483169556,
        2.5694730281829834,
        2.809231996536255
      ],
      "min": [
        -4.047840118408203,
        -0.9135329723358154,
        0.7150020003318787
      ],
      "type": "VEC3"
    },
    {
      "bufferView": 2,
      "byteOffset": 13368528,
      "componentType": 5126,
      "count": 65532,
      "max": [
        0.9999462366104126,
        0.999983549118042,
        1.0
      ],
      "min": [
        -0.9999850988388062,
        -0.999953031539917,
        -0.9999805688858032
      ],
      "type": "VEC3"
    },
    {
      "bufferView": 1,
      "byteOffset": 4194048,
      "componentType": 5126,
      "count": 65532,
      "max": [
        0.9998949766159058,
        0.9999650120735168
      ],
      "min": [
        0.000986000057309866,
        0.00012599999899975955
      ],
      "type": "VEC2"
    },
    {
      "bufferView": 0,
      "byteOffset": 10641576,
      "componentType": 5125,
      "count": 347832,
      "type": "SCALAR"
    },
    {
      "bufferView": 2,
      "byteOffset": 14154912,
      "componentType": 5126,
      "count": 62985,
      "max": [
        -0.05265900120139122,
        3.8798999786376953,
        1.2062920331954956
      ],
      "min": [
        -5.093841075897217,
        -1.0991580486297607,
        0.23994199931621552
      ],
      "type": "VEC3"
    },
    {
      "bufferView": 2,
      "byteOffset": 14910732,
      "componentType": 5126,
      "count": 62985,
      "max": [
        0.9999372959136963,
        0.9996342062950134,
        1.0
      ],
      "min": [
        -0.9996209740638733,
        -0.9995175004005432,
        -0.9867066740989685
      ],
      "type": "VEC3"
    },
    {
      "bufferView": 1,
      "byteOffset": 4718304,
      "componentType": 5126,
      "count": 62985,
      "max": [
        0.998000979423523,
        0.999688982963562
      ],
      "min": [
        0.0012989999959245324,
        0.0001610000035725534
      ],
      "type": "VEC2"
    },
    {
      "bufferView": 0,
      "byteOffset": 12032904,
      "componentType": 5125,
      "count": 318390,
      "type": "SCALAR"
    }
  ],
  "asset": {
    "extras": {
      "author": "Lassi Kaukonen (https://sketchfab.com/thesidekick)",
      "license": "CC-BY-4.0 (http://creativecommons.org/licenses/by/4.0/)",
      "source": "https://sketchfab.com/3d-models/mm-wave-solar-radio-telescope-c26c5d32954a4908a71ff04c1be88bd4",
      "title": "MM wave Solar radio telescope"
    },
    "generator": "Sketchfab-12.68.0",
    "version": "2.0"
  },
  "bufferViews": [
    {
      "buffer": 0,
      "byteLength": 13306464,
      "name": "floatBufferViews",
      "target": 34963
    },
    {
      "buffer": 0,
      "byteLength": 5222184,
      "byteOffset": 13306464,
      "byteStride": 8,
      "name": "floatBufferViews",
      "target": 34962
    },
    {
      "buffer": 0,
      "byteLength": 15666552,
      "byteOffset": 18528648,
      "byteStride": 12,
      "name": "floatBufferViews",
      "target": 34962
    }
  ],
  "buffers": [
    {
      "byteLength": 34195200,
      "uri": "scene.bin"
    }
  ],
  "images": [
    {
      "uri": "textures/Tuorla2020_solar_radio_telescope_baseColor.jpeg"
    }
  ],
  "materials": [
    {
      "doubleSided": true,
      "name": "Tuorla2020_solar_radio_telescope",
      "pbrMetallicRoughness": {
        "baseColorTexture": {
          "index": 0
        },
        "metallicFactor": 0.0
      }
    }
  ],
  "meshes": [
    {
      "name": "Object_0",
      "primitives": [
        {
          "attributes": {
            "NORMAL": 1,
            "POSITION": 0,
            "TEXCOORD_0": 2
          },
          "indices": 3,
          "material": 0,
          "mode": 4
        }
      ]
    },
    {
      "name": "Object_1",
      "primitives": [
        {
          "attributes": {
            "NORMAL": 5,
            "POSITION": 4,
            "TEXCOORD_0": 6
          },
          "indices": 7,
          "material": 0,
          "mode": 4
        }
      ]
    },
    {
      "name": "Object_2",
      "primitives": [
        {
          "attributes": {
            "NORMAL": 9,
            "POSITION": 8,
            "TEXCOORD_0": 10
          },
          "indices": 11,
          "material": 0,
          "mode": 4
        }
      ]
    },
    {
      "name": "Object_3",
      "primitives": [
        {
          "attributes": {
            "NORMAL": 13,
            "POSITION": 12,
            "TEXCOORD_0": 14
          },
          "indices": 15,
          "material": 0,
          "mode": 4
        }
      ]
    },
    {
      "name": "Object_4",
      "primitives": [
        {
          "attributes": {
            "NORMAL": 17,
            "POSITION": 16,
            "TEXCOORD_0": 18
          },
          "indices": 19,
          "material": 0,
          "mode": 4
        }
      ]
    },
    {
      "name": "Object_5",
      "primitives": [
        {
          "attributes": {
            "NORMAL": 21,
            "POSITION": 20,
            "TEXCOORD_0": 22
          },
          "indices": 23,
          "material": 0,
          "mode": 4
        }
      ]
    },
    {
      "name": "Object_6",
      "primitives": [
        {
          "attributes": {
            "NORMAL": 25,
            "POSITION": 24,
            "TEXCOORD_0": 26
          },
          "indices": 27,
          "material": 0,
          "mode": 4
        }
      ]
    },
    {
      "name": "Object_7",
      "primitives": [
        {
          "attributes": {
            "NORMAL": 29,
            "POSITION": 28,
            "TEXCOORD_0": 30
          },
          "indices": 31,
          "material": 0,
          "mode": 4
        }
      ]
    },
    {
      "name": "Object_8",
      "primitives": [
        {
          "attributes": {
            "NORMAL": 33,
            "POSITION": 32,
            "TEXCOORD_0": 34
          },
          "indices": 35,
          "material": 0,
          "mode": 4
        }
      ]
    },
    {
      "name": "Object_9",
      "primitives": [
        {
          "attributes": {
            "NORMAL": 37,
            "POSITION": 36,
            "TEXCOORD_0": 38
          },
          "indices": 39,
          "material": 0,
          "mode": 4
        }
      ]
    }
  ],
  "nodes": [
    {
      "children": [
        1
      ],
      "matrix": [
        1.0,
        0.0,
        0.0,
        0.0,
        0.0,
        2.220446049250313e-16,
        -1.0,
        0.0,
        0.0,
        1.0,
        2.220446049250313e-16,
        0.0,
        0.0,
        0.0,
        0.0,
        1.0
      ],
      "name": "Sketchfab_model"
    },
    {
      "children": [
        2,
        3,
        4,
        5,
        6,
        7,
        8,
        9,
        10,
        11
      ],
      "name": "Tuorla2020_solar_radio_telescope_SF.obj.cleaner.materialmerger.gles"
    },
    {
      "mesh": 0,
      "name": "Object_2"
    },
    {
      "mesh": 1,
      "name": "Object_3"
    },
    {
      "mesh": 2,
      "name": "Object_4"
    },
    {
      "mesh": 3,
      "name": "Object_5"
    },
    {
      "mesh": 4,
      "name": "Object_6"
    },
    {
      "mesh": 5,
      "name": "Object_7"
    },
    {
      "mesh": 6,
      "name": "Object_8"
    },
    {
      "mesh": 7,
      "name": "Object_9"
    },
    {
      "mesh": 8,
      "name": "Object_10"
    },
    {
      "mesh": 9,
      "name": "Object_11"
    }
  ],
  "samplers": [
    {
      "magFilter": 9729,
      "minFilter": 9987,
      "wrapS": 10497,
      "wrapT": 10497
    }
  ],
  "scene": 0,
  "scenes": [
    {
      "name": "Sketchfab_Scene",
      "nodes": [
        0
      ]
    }
  ],
  "textures": [
    {
      "sampler": 0,
      "source": 0
    }
  ]
}
